<svg xmlns="http://www.w3.org/2000/svg" width="24.002" height="24.046" viewBox="0 0 24.002 24.046">
  <path id="Icon_feather-phone" data-name="Icon feather-phone" d="M25.167,19.5v3.318a2.212,2.212,0,0,1-2.411,2.212,21.891,21.891,0,0,1-9.546-3.4A21.57,21.57,0,0,1,6.573,15a21.891,21.891,0,0,1-3.4-9.59A2.212,2.212,0,0,1,5.378,3H8.7a2.212,2.212,0,0,1,2.212,1.9,14.2,14.2,0,0,0,.774,3.108,2.212,2.212,0,0,1-.5,2.334l-1.4,1.4a17.7,17.7,0,0,0,6.637,6.637l1.4-1.4a2.212,2.212,0,0,1,2.334-.5,14.2,14.2,0,0,0,3.108.774,2.212,2.212,0,0,1,1.9,2.245Z" transform="translate(-2.167 -2)" fill="none" stroke="#fff" stroke-linecap="round" stroke-linejoin="round" stroke-width="2"/>
</svg>
